<mxfile host="Electron" modified="2024-05-06T06:21:32.099Z" agent="Mozilla/5.0 (Windows NT 10.0; Win64; x64) AppleWebKit/537.36 (KHTML, like Gecko) draw.io/24.2.5 Chrome/120.0.6099.109 Electron/28.1.0 Safari/537.36" etag="0ZxAgwZG-x9P2gjjKMLl" version="24.2.5" type="device">
  <diagram name="第 1 页" id="dVdpCF9wNjlWeNjONU8Y">
    <mxGraphModel dx="1195" dy="697" grid="1" gridSize="10" guides="1" tooltips="1" connect="1" arrows="1" fold="1" page="1" pageScale="1" pageWidth="1169" pageHeight="1654" math="0" shadow="0">
      <root>
        <mxCell id="0" />
        <mxCell id="1" parent="0" />
        <mxCell id="zZbEqNytoACPGPrGH0ZM-1" value="&lt;font face=&quot;Times New Roman&quot; style=&quot;font-size: 16px;&quot;&gt;DRAM&lt;/font&gt;&lt;div style=&quot;font-size: 16px;&quot;&gt;&lt;font face=&quot;Times New Roman&quot; style=&quot;font-size: 16px;&quot;&gt;(GDDR/HBM)&lt;/font&gt;&lt;/div&gt;" style="rounded=0;whiteSpace=wrap;html=1;fillColor=#dae8fc;strokeColor=#6c8ebf;" vertex="1" parent="1">
          <mxGeometry x="240" y="400" width="120" height="230" as="geometry" />
        </mxCell>
        <mxCell id="zZbEqNytoACPGPrGH0ZM-2" value="&lt;font face=&quot;Times New Roman&quot; style=&quot;font-size: 16px;&quot;&gt;Off-Chip&lt;/font&gt;" style="text;html=1;align=center;verticalAlign=middle;whiteSpace=wrap;rounded=0;" vertex="1" parent="1">
          <mxGeometry x="260" y="370" width="80" height="30" as="geometry" />
        </mxCell>
        <mxCell id="zZbEqNytoACPGPrGH0ZM-22" value="" style="edgeStyle=orthogonalEdgeStyle;rounded=0;orthogonalLoop=1;jettySize=auto;html=1;" edge="1" parent="1" source="zZbEqNytoACPGPrGH0ZM-3" target="zZbEqNytoACPGPrGH0ZM-1">
          <mxGeometry relative="1" as="geometry" />
        </mxCell>
        <mxCell id="zZbEqNytoACPGPrGH0ZM-3" value="" style="rounded=0;whiteSpace=wrap;html=1;dashed=1;" vertex="1" parent="1">
          <mxGeometry x="420" y="400" width="420" height="230" as="geometry" />
        </mxCell>
        <mxCell id="zZbEqNytoACPGPrGH0ZM-4" value="&lt;font face=&quot;Times New Roman&quot; style=&quot;font-size: 16px;&quot;&gt;DRAM&lt;/font&gt;&lt;div style=&quot;font-size: 16px;&quot;&gt;&lt;font face=&quot;Times New Roman&quot; style=&quot;font-size: 16px;&quot;&gt;(GDDR/HBM)&lt;/font&gt;&lt;/div&gt;" style="rounded=0;whiteSpace=wrap;html=1;fillColor=#dae8fc;strokeColor=#6c8ebf;" vertex="1" parent="1">
          <mxGeometry x="900" y="400" width="120" height="230" as="geometry" />
        </mxCell>
        <mxCell id="zZbEqNytoACPGPrGH0ZM-5" value="&lt;font face=&quot;Times New Roman&quot; style=&quot;font-size: 16px;&quot;&gt;Off-Chip&lt;/font&gt;" style="text;html=1;align=center;verticalAlign=middle;whiteSpace=wrap;rounded=0;" vertex="1" parent="1">
          <mxGeometry x="920" y="370" width="80" height="30" as="geometry" />
        </mxCell>
        <mxCell id="zZbEqNytoACPGPrGH0ZM-6" value="&lt;font face=&quot;Times New Roman&quot; style=&quot;font-size: 16px;&quot;&gt;On-Chip&lt;/font&gt;" style="text;html=1;align=center;verticalAlign=middle;whiteSpace=wrap;rounded=0;" vertex="1" parent="1">
          <mxGeometry x="590" y="370" width="80" height="30" as="geometry" />
        </mxCell>
        <mxCell id="zZbEqNytoACPGPrGH0ZM-9" value="&lt;font style=&quot;font-size: 16px;&quot; face=&quot;Times New Roman&quot;&gt;Memory Controller&lt;/font&gt;" style="rounded=0;whiteSpace=wrap;html=1;rotation=-90;fillColor=#dae8fc;strokeColor=#6c8ebf;" vertex="1" parent="1">
          <mxGeometry x="350" y="490" width="210" height="50" as="geometry" />
        </mxCell>
        <mxCell id="zZbEqNytoACPGPrGH0ZM-11" value="&lt;span style=&quot;font-family: &amp;quot;Times New Roman&amp;quot;; font-size: 16px;&quot;&gt;Core(SM)&lt;/span&gt;" style="rounded=0;whiteSpace=wrap;html=1;fillColor=#b1ddf0;strokeColor=#10739e;" vertex="1" parent="1">
          <mxGeometry x="490" y="550" width="80" height="70" as="geometry" />
        </mxCell>
        <mxCell id="zZbEqNytoACPGPrGH0ZM-12" value="&lt;font style=&quot;font-size: 16px;&quot; face=&quot;Times New Roman&quot;&gt;L2 SRAM&lt;/font&gt;" style="rounded=0;whiteSpace=wrap;html=1;fillColor=#d5e8d4;strokeColor=#82b366;" vertex="1" parent="1">
          <mxGeometry x="580" y="410" width="100" height="210" as="geometry" />
        </mxCell>
        <mxCell id="zZbEqNytoACPGPrGH0ZM-13" value="&lt;font style=&quot;font-size: 16px;&quot; face=&quot;Times New Roman&quot;&gt;Core(SM)&lt;/font&gt;" style="rounded=0;whiteSpace=wrap;html=1;fillColor=#b1ddf0;strokeColor=#10739e;" vertex="1" parent="1">
          <mxGeometry x="490" y="440" width="80" height="70" as="geometry" />
        </mxCell>
        <mxCell id="zZbEqNytoACPGPrGH0ZM-14" value="&lt;span style=&quot;font-family: &amp;quot;Times New Roman&amp;quot;; font-size: 16px;&quot;&gt;L1 SRAM&lt;/span&gt;" style="rounded=0;whiteSpace=wrap;html=1;fillColor=#d5e8d4;strokeColor=#82b366;" vertex="1" parent="1">
          <mxGeometry x="490" y="520" width="80" height="30" as="geometry" />
        </mxCell>
        <mxCell id="zZbEqNytoACPGPrGH0ZM-15" value="&lt;span style=&quot;font-family: &amp;quot;Times New Roman&amp;quot;; font-size: 16px;&quot;&gt;L1 SRAM&lt;/span&gt;" style="rounded=0;whiteSpace=wrap;html=1;fillColor=#d5e8d4;strokeColor=#82b366;" vertex="1" parent="1">
          <mxGeometry x="490" y="410" width="80" height="30" as="geometry" />
        </mxCell>
        <mxCell id="zZbEqNytoACPGPrGH0ZM-16" value="&lt;font style=&quot;font-size: 16px;&quot; face=&quot;Times New Roman&quot;&gt;Memory Controller&lt;/font&gt;" style="rounded=0;whiteSpace=wrap;html=1;rotation=-90;fillColor=#dae8fc;strokeColor=#6c8ebf;" vertex="1" parent="1">
          <mxGeometry x="700" y="490" width="210" height="50" as="geometry" />
        </mxCell>
        <mxCell id="zZbEqNytoACPGPrGH0ZM-17" value="&lt;span style=&quot;font-family: &amp;quot;Times New Roman&amp;quot;; font-size: 16px;&quot;&gt;Core(SM)&lt;/span&gt;" style="rounded=0;whiteSpace=wrap;html=1;fillColor=#b1ddf0;strokeColor=#10739e;" vertex="1" parent="1">
          <mxGeometry x="690" y="550" width="80" height="70" as="geometry" />
        </mxCell>
        <mxCell id="zZbEqNytoACPGPrGH0ZM-18" value="&lt;span style=&quot;font-family: &amp;quot;Times New Roman&amp;quot;; font-size: 16px;&quot;&gt;Core(SM)&lt;/span&gt;" style="rounded=0;whiteSpace=wrap;html=1;fillColor=#b1ddf0;strokeColor=#10739e;" vertex="1" parent="1">
          <mxGeometry x="690" y="440" width="80" height="70" as="geometry" />
        </mxCell>
        <mxCell id="zZbEqNytoACPGPrGH0ZM-19" value="&lt;span style=&quot;font-family: &amp;quot;Times New Roman&amp;quot;; font-size: 16px;&quot;&gt;L1 SRAM&lt;/span&gt;" style="rounded=0;whiteSpace=wrap;html=1;fillColor=#d5e8d4;strokeColor=#82b366;" vertex="1" parent="1">
          <mxGeometry x="690" y="520" width="80" height="30" as="geometry" />
        </mxCell>
        <mxCell id="zZbEqNytoACPGPrGH0ZM-20" value="&lt;span style=&quot;font-family: &amp;quot;Times New Roman&amp;quot;; font-size: 16px;&quot;&gt;L1 SRAM&lt;/span&gt;" style="rounded=0;whiteSpace=wrap;html=1;fillColor=#d5e8d4;strokeColor=#82b366;" vertex="1" parent="1">
          <mxGeometry x="690" y="410" width="80" height="30" as="geometry" />
        </mxCell>
        <mxCell id="zZbEqNytoACPGPrGH0ZM-21" value="" style="endArrow=classic;startArrow=classic;html=1;rounded=0;exitX=1;exitY=0.5;exitDx=0;exitDy=0;" edge="1" parent="1" source="zZbEqNytoACPGPrGH0ZM-1">
          <mxGeometry width="50" height="50" relative="1" as="geometry">
            <mxPoint x="510" y="560" as="sourcePoint" />
            <mxPoint x="420" y="515" as="targetPoint" />
          </mxGeometry>
        </mxCell>
        <mxCell id="zZbEqNytoACPGPrGH0ZM-23" value="" style="endArrow=classic;startArrow=classic;html=1;rounded=0;exitX=1;exitY=0.5;exitDx=0;exitDy=0;" edge="1" parent="1">
          <mxGeometry width="50" height="50" relative="1" as="geometry">
            <mxPoint x="840" y="514.66" as="sourcePoint" />
            <mxPoint x="900" y="514.66" as="targetPoint" />
          </mxGeometry>
        </mxCell>
      </root>
    </mxGraphModel>
  </diagram>
</mxfile>
